<svg xmlns="http://www.w3.org/2000/svg" version="1.1" xmlns:xlink="http://www.w3.org/1999/xlink" xmlns:svgjs="http://svgjs.dev/svgjs" width="1000" height="1000" viewBox="0 0 1000 1000"><rect width="1000" height="1000" fill="#5d0303"></rect><g transform="matrix(0.7,0,0,0.7,150.00005140625,106.25)"><svg viewBox="0 0 320 360" data-background-color="#5d0303" preserveAspectRatio="xMidYMid meet" height="1125" width="1000" xmlns="http://www.w3.org/2000/svg" xmlns:xlink="http://www.w3.org/1999/xlink"><g id="tight-bounds" transform="matrix(1,0,0,1,0.000023499999997511622,0)"><svg viewBox="0 0 320 360" height="360" width="320"><g><svg></svg></g><g><svg viewBox="0 0 320 360" height="360" width="320"><g><path transform="translate(-74.99272,-51.79039) scale(4.65793,4.65793)" d="M20.6 59.9l0.8 1-0.4-1.3c-0.1-0.6-0.8 0.1-0.4 0.3M21.5 59.3c0.3 0.5 0.6 1 0.6 1.5 0 0.7 0.6 1 1.1 1.2-0.7-0.8-1.1-3-1.7-2.7M59.9 16.9c1.7 0 3.3-0.2 5.1 0.2 4.4 1.1 8.1 3.3 10.6 6.4l7 11.2c0.3 2.8 0.9 5.9 0.8 9.3 0.7 0 0.6-1 1.4-1.2-0.8 2-1.2 4.5-1.4 7.4-0.5-1.6 0-4 0.1-5.3-0.7 1.1-1.1 0.3-1.1-0.2 0.1-0.8-0.3-0.7-0.6-1-1.1-1-1.8-2.1-2.6-3.8 0.5-1.3 0.6-3.2-1-4.2-0.5-0.3-1.1-0.8-1.4-1.6-0.4-1.1-1.1-2.4-0.9-4.1 0.1-0.5-1.5 1.1-2.4 0.4-3.9-2.7-7.8-5.8-12.5-8.4-2.5 0-4.3-0.9-5.2-2-0.8-1-0.2-2.3 1-2.4 0.7 0 1.5-0.2 2.1 0.2 0.1-0.4 0.5-0.9 1-0.9M50 14.6l0.2 0.1c1 0.2 1.5 1.6 2.6 1.1 0 0.7 0.1 1.4-0.1 1.9-0.3 0.8-1.2 0.8-1.9 0.8-6.7-0.4-10.6 2.4-14.7 4.8-1.1 0.7-2.3 1.2-3.2 2.1-4.3 4-9 7.7-10.1 15.1l-0.9 8.2c-0.1 0.9-1.1 1.8-0.9 2.9l0.7 4.9c-0.7-0.7-1.1 0.2-0.9 0.6 0.1 0.3 0.5 1.3 1.1 0.4 0.8 1.5 1.6 4.4 2.7 5.7 3.4 4 7.8 7.6 11.4 11.2 0.9-0.2 1.6-0.2 1.8-0.8 0.3 0.6-0.3 1.2-0.8 1.3 1.6 1 3.4 1.9 5.8 2.1 3.1 0.2 6 0.7 8.7 1.4 1.4-0.4 2.8-0.6 4.3-0.7 0.5 0 0.8-0.8 1.4-1l0.1-1c0.6 0.9 0.5-0.3 0.1-0.9 0.7 0.6 0.9 1.1 1.2 1.5 0-0.3 0.8-1.4 0.8-0.1l0.2-1.3c0.3-0.2 0.4 1.1 0.7 0.2 0.3-0.9 0.9-0.2 1.5-0.5-0.2 0.4-0.1 1.2 0.6 0.7l0.8-0.7c0.5 1.2 1.3 0.7 1.7 0.5 4.4-2.8 8.8-6.1 13-9.4l-0.1 1.3 0.5-1.6c0.5 0.5 0.9 0.1 1.1-0.2 0.6-1 1.4-2 2.7-2.9-1.6 4.3-3.5 7.7-5.9 10.5l-1 1.2c0 0.7-0.2 1.6-1 1.7-0.4 0.1-1.2-0.2-1.8 0.4-0.3 0.4 0.7 1.2-0.1 0.6-0.7-0.5-1.4 0-2.2 0.2-0.6 0.2 0.4 0.8 0.6 1.2 0.2 0.4 0.4 0.8 0.3 1.3l-1.1-1.2c-1.3 0.7-2.1 2-3.2 3-0.5 0.4-0.3 1.1-0.3 1.7-0.7 0-1.5-0.2-1.9 0.2-0.3 0.4-0.2 1-0.2 1.6-1-0.1-1.1-1.6-2-1.3-0.9 0.2-1.9 0.3-2.7 0.8 0.6 1.2-1 0.5-0.8 0.7-1.5-0.9-2.8-1.6-4.4-1-3.4-1.1-7.6-0.6-10.7-0.2 0-0.5 0.1-1-0.1-1.1-0.2 0.5-0.8 0.3-0.7 0.3-1.9-1.3-3.8-2.1-5.8-3.2-1.8 0.2-3.5-0.7-4-1.2-1.4-1.3-3-0.6-4.3-0.9-2.8-0.7-3.8-3.6-4.1-5.6-0.2-1-1-1.4-1.3-1.3-1.3-4.2-3.3-8-4.9-11.9-0.4-1-0.3-2-0.3-3.1 0.5 0.2 1 0.1 0.9-0.6-0.5-3.3-1.7-5.8-3-8.2 0.7-3.4 0.8-7.4 2.4-10.4 1.4-2.7 4-4.1 5.8-6.4 0.6-0.8 0.6-1.9 1.2-2.6 2-2 4-4.1 6.2-5.9 1-0.8 2.2 0 3.7-0.3 0.5-1.8 2.5-3.4 4.4-2.9 0.8 0.2 2.4-1.9 2.9-2.1 0.8-0.3 0.4 0.8 0.4 1.5 1.9-1.5 4.5-2.3 6.9-3.2" fill="#fafafa" fill-rule="nonzero" stroke="none" stroke-width="1" stroke-linecap="butt" stroke-linejoin="miter" stroke-miterlimit="10" stroke-dasharray="" stroke-dashoffset="0" font-family="none" font-weight="none" font-size="none" text-anchor="none" style="mix-blend-mode: normal" data-fill-palette-color="tertiary"></path></g><g transform="matrix(1,0,0,1,83.0816678195846,90)"><svg viewBox="0 0 153.8366643608308 180" height="180" width="153.8366643608308"><g><svg viewBox="0 0 192 224.65385702161333" height="180" width="153.8366643608308"><g transform="matrix(1,0,0,1,0,189.30515180699823)"><svg viewBox="0 0 192 35.34870521461511" height="35.34870521461511" width="192"><g id="textblocktransform"><svg viewBox="0 0 192 35.34870521461511" height="35.34870521461511" width="192" id="textblock"><g><svg viewBox="0 0 192 35.34870521461511" height="35.34870521461511" width="192"><g transform="matrix(1,0,0,1,0,0)"><svg width="192" viewBox="4.15 -51.25 281.87 51.9" height="35.34870521461511" data-palette-color="#ffffff"><path d="M31.1-36.25Q31.4-36.2 31.55-35.95L31.55-35.95Q31.15-35.45 31-34.43 30.85-33.4 30.85-33.25L30.85-33.25Q30.7-32.4 30.1-32.4L30.1-32.4Q27.9-32.4 21.4-32.8L21.4-32.8Q16-33.1 15.25-33.1L15.25-33.1Q14.25-33.1 13.98-32.9 13.7-32.7 13.5-32.05L13.5-32.05Q13-30.35 10.55-18.3L10.55-18.3Q13.95-18.1 16.7-18.1L16.7-18.1Q23.4-18.1 27.5-19.3L27.5-19.3 27.7-19.1Q27.55-18.8 27.3-17.75 27.05-16.7 27.05-16.15L27.05-16.15Q24.6-16.15 22.25-16.2L22.25-16.2 10.1-16.25Q7.25-1.9 7.25-0.85L7.25-0.85 7.3-0.15Q6.6 0.2 5.1 0.2L5.1 0.2Q4.6 0.2 4.38 0.08 4.15-0.05 4.15-0.55L4.15-0.55Q4.15-0.95 4.45-2.35L4.45-2.35 7.6-16.9Q9.05-23.35 9.93-27.53 10.8-31.7 10.8-32.4L10.8-32.4Q10.8-33.2 9.55-33.2L9.55-33.2 8-33.1 6.65-33.05Q6.05-33.05 6.05-33.35L6.05-33.35Q6.05-33.6 6.23-34.23 6.4-34.85 6.7-35.35L6.7-35.35Q12.55-35 20-35L20-35Q25.65-35 27.68-35.2 29.7-35.4 31.1-36.25L31.1-36.25ZM52.85-14Q53.35-14 53.65-13.53 53.95-13.05 53.95-12.35L53.95-12.35Q53.95-11.45 53.45-10.45L53.45-10.45Q52.05-7.5 49.45-5.03 46.85-2.55 43.82-1.1 40.8 0.35 38.2 0.35L38.2 0.35Q32.9 0.35 32.9-5.8L32.9-5.8Q32.9-10.1 35.25-19.63 37.6-29.15 42.05-44.9L42.05-44.9Q43-48.15 44.12-49.7 45.25-51.25 46.7-51.25L46.7-51.25Q47.75-51.25 48.72-50.53 49.7-49.8 50.35-48.3 51-46.8 51-44.6L51-44.6Q51-41.05 49.32-35.6 47.65-30.15 44.3-24.1 40.95-18.05 36.25-12.9L36.25-12.9Q35.4-8.5 35.4-6.35L35.4-6.35Q35.4-3.95 36.37-2.93 37.35-1.9 39.1-1.9L39.1-1.9Q41.55-1.9 44.32-3.55 47.1-5.2 49.4-8 51.7-10.8 52.85-14L52.85-14ZM43.35-41.75Q39.15-26.65 37-16.7L37-16.7Q40.7-21.35 43.37-26.85 46.05-32.35 47.37-37.15 48.7-41.95 48.7-44.7L48.7-44.7Q48.7-46.25 48.25-47.38 47.8-48.5 46.75-48.5L46.75-48.5Q46.15-48.5 45.32-47.25 44.5-46 43.35-41.75L43.35-41.75ZM78.95-11.55Q79.59-11.55 79.59-10.25L79.59-10.25Q79.59-7.95 77.57-5.4 75.55-2.85 72.67-1.13 69.8 0.6 67.4 0.6L67.4 0.6Q65.45 0.6 64.4-0.6 63.35-1.8 63.15-3.7L63.15-3.7Q61.9-1.9 60-0.75 58.1 0.4 56.6 0.4L56.6 0.4Q55.3 0.4 54.02-0.48 52.75-1.35 51.95-2.63 51.15-3.9 51.1-5.05L51.1-5.05 53.55-15.15Q53.85-16.35 55.07-17.73 56.3-19.1 58.05-20 59.8-20.9 61.6-20.9L61.6-20.9Q63.9-20.9 65.65-19.35L65.65-19.35Q66.1-20.55 66.32-20.85 66.55-21.15 67-21.2L67-21.2 69.45-21.45 69.6-21.35Q68.6-20.55 68.15-18.85L68.15-18.85Q66.6-13.05 66.02-10.3 65.45-7.55 65.45-5.45L65.45-5.45Q65.45-3.35 66-2.38 66.55-1.4 67.85-1.4L67.85-1.4Q69.45-1.4 71.67-2.7 73.9-4 75.9-6.33 77.9-8.65 78.95-11.55L78.95-11.55ZM56.8-1.95Q57.65-1.95 58.87-2.55 60.1-3.15 61.17-4.28 62.25-5.4 62.65-6.85L62.65-6.85 63.6-10.95Q63.8-11.95 64.3-14.18 64.8-16.4 65.1-17.6L65.1-17.6Q63.7-19 61.7-19L61.7-19Q60.15-19 58.9-18.18 57.65-17.35 56.85-16.18 56.05-15 55.85-14.1L55.85-14.1 53.85-5.2Q53.95-3.95 54.85-2.95 55.75-1.95 56.8-1.95L56.8-1.95ZM88.14-22.5Q91.09-21.6 92.49-20.28 93.89-18.95 93.89-16.3L93.89-16.3Q93.89-14.25 92.92-12.48 91.94-10.7 89.94-8.65 87.94-6.6 83.29-2.35L83.29-2.35Q82.44-1.6 80.74 0L80.74 0 78.69 0Q78.89-0.8 78.89-1.15L78.89-1.15 78.84-14.2 78.84-15.95Q78.84-17.45 78.62-17.88 78.39-18.3 77.49-18.3L77.49-18.3 74.04-18.35Q74.04-19 74.39-19.35L74.39-19.35Q76.19-19.55 77.07-19.78 77.94-20 78.64-20.3 79.34-20.6 79.79-20.8L79.79-20.8Q80.94-20.4 81.24-19.35 81.54-18.3 81.54-16.55L81.54-16.55Q81.54-12.05 81.39-7.7L81.39-7.7Q81.39-6.95 81.29-2.65L81.29-2.65Q86.99-8.6 89.04-11.65 91.09-14.7 91.09-16.85L91.09-16.85Q91.09-20.1 87.64-22.25L87.64-22.25 88.14-22.5ZM124.74-17.65Q125.24-17.5 125.24-16.65L125.24-16.65Q125.24-15.4 124.24-14.08 123.24-12.75 121.52-11.9 119.79-11.05 117.74-11.05L117.74-11.05Q114.99-11.05 112.89-12.55L112.89-12.55Q112.59-11.1 112.14-9.6L112.14-9.6Q111.99-9.05 111.49-7.08 110.99-5.1 110.79-3.55L110.79-3.55Q110.44-2.75 109.39-1.83 108.34-0.9 106.89-0.25 105.44 0.4 104.04 0.4L104.04 0.4Q102.49 0.4 101.04-0.4 99.59-1.2 98.67-2.55 97.74-3.9 97.74-5.55L97.74-5.55Q98.44-7.65 98.89-9.5 99.34-11.35 99.74-13.25L99.74-13.25 100.24-15.75Q100.49-16.9 101.59-18.03 102.69-19.15 104.27-19.88 105.84-20.6 107.44-20.6L107.44-20.6Q108.04-20.6 109.14-20.4L109.14-20.4Q109.29-21.55 109.67-22 110.04-22.45 110.89-22.45L110.89-22.45Q111.39-22.45 112.04-22.3L112.04-22.3Q111.79-20.9 111.79-19.9L111.79-19.9Q111.79-17 113.54-15 115.29-13 118.29-13L118.29-13Q120.54-13 122.17-14.2 123.79-15.4 124.74-17.65L124.74-17.65ZM108.59-4.4Q108.99-6.4 109.74-8.95L109.74-8.95Q110.74-12.3 111.04-14.35L111.04-14.35Q109.94-15.75 109.54-17.75L109.54-17.75Q109.54-17.95 109.47-18.07 109.39-18.2 109.14-18.25L109.14-18.25Q108.39-18.55 107.44-18.55L107.44-18.55Q105.59-18.55 104.24-17.55 102.89-16.55 102.54-15.15L102.54-15.15Q102.39-14.55 101.44-10.45L101.44-10.45Q100.99-8.05 100.34-5.7L100.34-5.7Q100.34-3.85 101.59-2.83 102.84-1.8 104.24-1.8L104.24-1.8Q105.44-1.8 106.82-2.65 108.19-3.5 108.59-4.4L108.59-4.4ZM143.84-17.85Q144.04-17.8 144.19-17.55 144.34-17.3 144.34-17L144.34-17Q144.34-15.95 143.36-14.98 142.39-14 140.81-13.4 139.24-12.8 137.64-12.8L137.64-12.8Q135.14-12.8 133.36-14.1 131.59-15.4 131.09-17.75L131.09-17.75Q128.84-17.5 126.96-14.9 125.09-12.3 124.34-9.25L124.34-9.25Q124.24-8.75 123.59-6.18 122.94-3.6 122.34-0.1L122.34-0.1Q122.29 0.05 122.21 0.13 122.14 0.2 121.89 0.2L121.89 0.2Q121.54 0.2 120.84-0.1 120.14-0.4 120.14-0.75L120.14-0.75Q120.14-1.45 120.39-2.6L120.39-2.6Q123.44-16.7 124.34-20.05L124.34-20.05Q124.44-20.5 124.56-20.65 124.69-20.8 124.99-20.8L124.99-20.8Q125.19-20.8 125.84-20.48 126.49-20.15 126.89-19.8L126.89-19.8 125.99-16.9 125.69-15.9Q126.84-17.7 128.34-18.8 129.84-19.9 131.54-19.9L131.54-19.9Q132.04-19.9 132.54-19.8 133.04-19.7 133.24-19.55L133.24-19.55Q133.24-17.1 134.51-15.93 135.79-14.75 138.09-14.75L138.09-14.75Q140.14-14.75 141.49-15.45 142.84-16.15 143.84-17.85L143.84-17.85ZM180.18-36.25Q180.48-36.2 180.63-35.95L180.63-35.95Q180.23-35.45 180.08-34.43 179.93-33.4 179.93-33.25L179.93-33.25Q179.78-32.4 179.18-32.4L179.18-32.4Q176.98-32.4 170.48-32.8L170.48-32.8Q165.08-33.1 164.33-33.1L164.33-33.1Q163.33-33.1 163.06-32.9 162.78-32.7 162.58-32.05L162.58-32.05Q162.08-30.35 159.63-18.3L159.63-18.3Q163.03-18.1 165.78-18.1L165.78-18.1Q172.48-18.1 176.58-19.3L176.58-19.3 176.78-19.1Q176.63-18.8 176.38-17.75 176.13-16.7 176.13-16.15L176.13-16.15Q173.68-16.15 171.33-16.2L171.33-16.2 159.18-16.25Q156.33-1.9 156.33-0.85L156.33-0.85 156.38-0.15Q155.68 0.2 154.18 0.2L154.18 0.2Q153.68 0.2 153.46 0.08 153.23-0.05 153.23-0.55L153.23-0.55Q153.23-0.95 153.53-2.35L153.53-2.35 156.68-16.9Q158.13-23.35 159.01-27.53 159.88-31.7 159.88-32.4L159.88-32.4Q159.88-33.2 158.63-33.2L158.63-33.2 157.08-33.1 155.73-33.05Q155.13-33.05 155.13-33.35L155.13-33.35Q155.13-33.6 155.31-34.23 155.48-34.85 155.78-35.35L155.78-35.35Q161.63-35 169.08-35L169.08-35Q174.73-35 176.76-35.2 178.78-35.4 180.18-36.25L180.18-36.25ZM206.58-11.7Q207.33-11.5 207.38-10.8L207.38-10.8Q207.38-9.6 205.48-6.83 203.58-4.05 200.78-1.85 197.98 0.35 195.18 0.35L195.18 0.35Q193.28 0.35 192.21-0.78 191.13-1.9 191.13-3.8L191.13-3.8Q191.13-4.45 191.23-4.85L191.23-4.85Q190.13-3.05 188.36-1.48 186.58 0.1 184.88 0.1L184.88 0.1Q183.43 0.1 182.03-1.05 180.63-2.2 180.33-3.4L180.33-3.4Q180.28-5.65 180.96-8.55 181.63-11.45 184.03-19.8L184.03-19.8Q184.33-20.75 184.73-20.75L184.73-20.75Q185.13-20.75 185.78-20.35 186.43-19.95 186.43-19.55L186.43-19.55Q186.43-19.35 186.31-19 186.18-18.65 186.13-18.45L186.13-18.45Q182.93-7.65 182.78-4.15L182.78-4.15Q183.03-3.5 183.86-2.83 184.68-2.15 185.28-2.15L185.28-2.15Q185.93-2.15 187.08-2.93 188.23-3.7 189.53-5.48 190.83-7.25 191.93-10.1L191.93-10.1Q193.23-13.55 194.83-20.2L194.83-20.2Q194.93-20.75 195.38-20.75L195.38-20.75Q195.78-20.75 196.46-20.33 197.13-19.9 197.13-19.35L197.13-19.35Q197.13-18.9 196.68-17.55 196.23-16.2 196.13-15.85L196.13-15.85Q194.93-12.35 194.21-9.68 193.48-7 193.48-4.9L193.48-4.9Q193.48-1.65 195.73-1.65L195.73-1.65Q197.18-1.65 199.08-2.88 200.98-4.1 202.96-6.4 204.93-8.7 206.58-11.7L206.58-11.7ZM207.13 0.65Q204.73 0.65 203.05-0.5 201.38-1.65 201.38-3.15L201.38-3.15Q201.38-3.95 201.83-4.45 202.28-4.95 202.83-5.05L202.83-5.05Q203.38-3.15 204.63-2.2 205.88-1.25 207.68-1.25L207.68-1.25Q209.93-1.25 211.28-2.53 212.63-3.8 212.63-5.5L212.63-5.5Q212.63-6.75 211.9-7.7 211.18-8.65 209.73-9.9L209.73-9.9Q208.13-11.3 207.35-12.33 206.58-13.35 206.58-14.8L206.58-14.8Q206.58-16.35 207.55-17.75 208.53-19.15 210.05-20 211.58-20.85 213.23-20.85L213.23-20.85Q214.68-20.85 215.9-20.23 217.13-19.6 217.13-18.55L217.13-18.55Q217.13-17.55 215.93-16.45L215.93-16.45Q215.28-17.6 214.33-18.23 213.38-18.85 212.33-18.85L212.33-18.85Q210.73-18.85 209.9-17.68 209.08-16.5 209.08-15.35L209.08-15.35Q209.08-14.4 209.73-13.65 210.38-12.9 211.78-11.75L211.78-11.75Q213.48-10.3 214.38-9.15 215.28-8 215.28-6.45L215.28-6.45Q215.28-4.8 214.2-3.15 213.13-1.5 211.25-0.43 209.38 0.65 207.13 0.65L207.13 0.65ZM227.23 0.35Q225.48 0.35 224.1-0.83 222.73-2 222.73-4.3L222.73-4.3Q223.48-6.7 225.33-14.95L225.33-14.95Q226.23-19 226.43-19.8L226.43-19.8Q227.08-20.9 228.23-20.9L228.23-20.9Q228.98-20.9 228.98-20.4L228.98-20.4Q228.63-19.15 228-16.43 227.38-13.7 227.03-12.15L227.03-12.15Q225.68-5.95 225.18-4.2L225.18-4.2Q225.18-3.05 225.85-2.43 226.53-1.8 227.63-1.8L227.63-1.8Q230.13-1.8 232.65-3.58 235.18-5.35 237.1-7.7 239.03-10.05 239.98-11.75L239.98-11.75Q240.28-11.65 240.38-11.43 240.48-11.2 240.48-10.65L240.48-10.65Q240.48-9.9 239.98-9.1L239.98-9.1Q237.28-4.85 233.93-2.25 230.58 0.35 227.23 0.35L227.23 0.35ZM229.53-27.15Q228.83-27.15 228.43-27.63 228.03-28.1 228.03-28.85L228.03-28.85Q228.03-29.85 228.68-30.68 229.33-31.5 230.33-31.5L230.33-31.5Q231.13-31.5 231.5-31 231.88-30.5 231.88-29.8L231.88-29.8Q231.88-28.8 231.2-27.98 230.53-27.15 229.53-27.15L229.53-27.15ZM264.37-17.65Q264.87-17.5 264.87-16.65L264.87-16.65Q264.87-15.4 263.87-14.08 262.87-12.75 261.15-11.9 259.42-11.05 257.37-11.05L257.37-11.05Q254.62-11.05 252.52-12.55L252.52-12.55Q252.22-11.1 251.77-9.6L251.77-9.6Q251.62-9.05 251.12-7.08 250.62-5.1 250.42-3.55L250.42-3.55Q250.07-2.75 249.02-1.83 247.97-0.9 246.52-0.25 245.07 0.4 243.67 0.4L243.67 0.4Q242.12 0.4 240.67-0.4 239.22-1.2 238.3-2.55 237.37-3.9 237.37-5.55L237.37-5.55Q238.07-7.65 238.52-9.5 238.97-11.35 239.37-13.25L239.37-13.25 239.87-15.75Q240.12-16.9 241.22-18.03 242.32-19.15 243.9-19.88 245.47-20.6 247.07-20.6L247.07-20.6Q247.67-20.6 248.77-20.4L248.77-20.4Q248.92-21.55 249.3-22 249.67-22.45 250.52-22.45L250.52-22.45Q251.02-22.45 251.67-22.3L251.67-22.3Q251.42-20.9 251.42-19.9L251.42-19.9Q251.42-17 253.17-15 254.92-13 257.92-13L257.92-13Q260.17-13 261.8-14.2 263.42-15.4 264.37-17.65L264.37-17.65ZM248.22-4.4Q248.62-6.4 249.37-8.95L249.37-8.95Q250.37-12.3 250.67-14.35L250.67-14.35Q249.57-15.75 249.17-17.75L249.17-17.75Q249.17-17.95 249.1-18.07 249.02-18.2 248.77-18.25L248.77-18.25Q248.02-18.55 247.07-18.55L247.07-18.55Q245.22-18.55 243.87-17.55 242.52-16.55 242.17-15.15L242.17-15.15Q242.02-14.55 241.07-10.45L241.07-10.45Q240.62-8.05 239.97-5.7L239.97-5.7Q239.97-3.85 241.22-2.83 242.47-1.8 243.87-1.8L243.87-1.8Q245.07-1.8 246.45-2.65 247.82-3.5 248.22-4.4L248.22-4.4ZM285.07-12.2Q285.57-12.2 285.8-11.78 286.02-11.35 286.02-10.8L286.02-10.8Q286.02-9 284.12-6.25 282.22-3.5 279.3-1.45 276.37 0.6 273.52 0.6L273.52 0.6Q271.72 0.6 270.75-0.3 269.77-1.2 269.77-3.05L269.77-3.05Q269.77-5.6 271.17-9.98 272.57-14.35 273.72-17.25L273.72-17.25Q273.52-17.55 273.32-17.55L273.32-17.55Q273.12-17.55 272.87-17.4L272.87-17.4Q271.97-16.85 269.92-14.95 267.87-13.05 265.92-10.95 263.97-8.85 263.27-7.55L263.27-7.55Q262.47-5.4 262.27-4.83 262.07-4.25 261.87-2.95L261.87-2.95 261.42-0.7Q261.37-0.55 261.32-0.33 261.27-0.1 261.19-0.05 261.12 0 260.97 0L260.97 0Q260.52 0 259.8-0.1 259.07-0.2 259.07-0.4L259.07-0.4Q259.07-1 259.42-2.35 259.77-3.7 260.12-4.8 260.47-5.9 260.67-6.5L260.67-6.5 261.12-7.9Q262.57-12.9 263.09-15.18 263.62-17.45 264.12-20.25L264.12-20.25Q264.17-20.75 264.82-20.75L264.82-20.75Q265.27-20.75 265.84-20.53 266.42-20.3 266.52-19.9L266.52-19.9Q266.32-19 265.8-16.85 265.27-14.7 264.52-12.1L264.52-12.1Q267.42-15.35 270.55-18 273.67-20.65 274.72-20.65L274.72-20.65Q275.22-20.65 275.92-20.15 276.62-19.65 276.77-19.2L276.77-19.2Q275.17-14.9 273.72-9.83 272.27-4.75 272.27-3.15L272.27-3.15Q272.27-1.4 274.27-1.4L274.27-1.4Q277.22-1.4 280.25-4.7 283.27-8 285.07-12.2L285.07-12.2Z" opacity="1" transform="matrix(1,0,0,1,0,0)" fill="#ffffff" class="wordmark-text-0" data-fill-palette-color="primary" id="text-0"></path></svg></g></svg></g></svg></g></svg></g><g transform="matrix(1,0,0,1,9.692405028746364,0)"><svg viewBox="0 0 172.61518994250727 172.61518994250727" height="172.61518994250727" width="172.61518994250727"><g><svg></svg></g><g id="icon-0"><svg viewBox="0 0 172.61518994250727 172.61518994250727" height="172.61518994250727" width="172.61518994250727"><g><path d="M0 86.308c0-47.666 38.641-86.308 86.308-86.308 47.666 0 86.308 38.641 86.307 86.308 0 47.666-38.641 86.308-86.307 86.307-47.666 0-86.308-38.641-86.308-86.307zM86.308 169.427c45.906 0 83.12-37.214 83.119-83.119 0-45.906-37.214-83.12-83.119-83.12-45.906 0-83.12 37.214-83.12 83.12 0 45.906 37.214 83.12 83.12 83.119z" data-fill-palette-color="accent" fill="#ffffff" stroke="transparent"></path><ellipse rx="85.4445190215411" ry="85.4445190215411" cx="86.30759497125364" cy="86.30759497125364" fill="#ffffff" stroke="transparent" stroke-width="0" fill-opacity="1" data-fill-palette-color="accent"></ellipse></g><g transform="matrix(1,0,0,1,44.506229837307295,35.923258297541466)"><svg viewBox="0 0 83.60273026789268 100.76867334742434" height="100.76867334742434" width="83.60273026789268"><g><svg xmlns="http://www.w3.org/2000/svg" xmlns:xlink="http://www.w3.org/1999/xlink" version="1.1" x="0" y="0" viewBox="5.356387831241043 1.3222235572460037 39.2878904755484 47.354776442753995" enable-background="new 0 0 50 50" xml:space="preserve" height="100.76867334742434" width="83.60273026789268" class="icon-cg-0" data-fill-palette-color="quaternary" id="cg-0"><g fill="#5d0303" data-fill-palette-color="quaternary"><path fill-rule="evenodd" clip-rule="evenodd" fill="#5d0303" d="M44.104 11.163c0.779-0.705 0.704-1.413-0.15-2.119-4.348 0.819-31.488 11.599-32.084 13.682C22.578 18.858 33.359 15.03 44.104 11.163z" data-fill-palette-color="quaternary"></path><path fill-rule="evenodd" clip-rule="evenodd" fill="#5d0303" d="M36.52 2.613c-0.484-3.271-4.054 0.521-6.617 2.082-2.642 2.043-4.833 3.531-7.547 5.578-2.566 1.968-13.312 9.478-13.906 11.783L36.52 2.613z" data-fill-palette-color="quaternary"></path><path fill-rule="evenodd" clip-rule="evenodd" fill="#5d0303" d="M18.671 26.926c2.752-1.076 2.381-4.869 7.548-2.936 0.483 0.781 0 1.45-0.632 2.229 3.235-1.261 5.245-2.86 7.66 1.303 1.896-0.631 5.726 0.93 6.023-0.074-1.488-0.816-3.05-1.486-5.354-1.486-0.744-0.707-1.523-1.376-2.305-2.083-1.19-0.372-2.416-0.335-3.641 0.111-1.268-0.818-1.936-1.747-4.092-1.747-2.12 0-2.791 0.929-4.017 1.747-3.271 0-3.568 0.036-5.986 2.229-1.561 0.447-3.159 0.855-4.721 1.303 0.073 0.223 0.111 0.447 0.186 0.631 1.747-0.258 3.495-0.52 5.242-0.779C15.214 24.995 20.048 23.582 18.671 26.926z" data-fill-palette-color="quaternary"></path><path fill-rule="evenodd" clip-rule="evenodd" fill="#5d0303" d="M5.363 28.861c-0.224 8.625 5.279 16.691 11.079 19.816h16.917c0.036-0.113 5.986-5.133 7.434-7.734 1.637-3.014 3.05-7.732 3.05-12.082H5.363z" data-fill-palette-color="quaternary"></path></g></svg></g></svg></g></svg></g></svg></g><g></g></svg></g></svg></g></svg></g><defs></defs></svg><rect width="320" height="360" fill="none" stroke="none" visibility="hidden"></rect></g></svg></g></svg>